<svg xmlns="http://www.w3.org/2000/svg" viewBox="0 0 535.92 490.75">
    <defs>
        <style>.cls-1{fill:#3f4a12;}</style>
    </defs>
    <title>Ресурс 1</title>
    <g id="Слой_2" data-name="Слой 2">
        <g id="Слой_1-2" data-name="Слой 1">
            <path class="cls-1"
                  d="M266.44,0a62.14,62.14,0,1,0,62.13,62.14A62.21,62.21,0,0,0,266.44,0Zm0,97.26a35.12,35.12,0,1,1,35.12-35.12A35.17,35.17,0,0,1,266.44,97.26Z"/>
            <path class="cls-1" d="M207.43,52.92H13.74a13.74,13.74,0,1,0,0,27.47H207.43a13.74,13.74,0,1,0,0-27.47Z"/>
            <path class="cls-1" d="M522.09,50.16H328.4a13.74,13.74,0,0,0,0,27.47H522.09a13.74,13.74,0,1,0,0-27.47Z"/>
            <path class="cls-1"
                  d="M194.53,182.19a62.14,62.14,0,1,0,62.14,62.14A62.22,62.22,0,0,0,194.53,182.19Zm0,97.26a35.12,35.12,0,1,1,35.12-35.12A35.16,35.16,0,0,1,194.53,279.45Z"/>
            <path class="cls-1" d="M137.3,235.11H13.9a13.74,13.74,0,1,0,0,27.47H137.3a13.74,13.74,0,1,0,0-27.47Z"/>
            <path class="cls-1"
                  d="M521.41,234.68H244.79a13.8,13.8,0,0,0-13.84,12,13.61,13.61,0,0,0,13.66,15H521.23a13.79,13.79,0,0,0,13.83-12A13.58,13.58,0,0,0,521.41,234.68Z"/>
            <path class="cls-1"
                  d="M340.24,366.48a62.14,62.14,0,1,0,62.14,62.14A62.22,62.22,0,0,0,340.24,366.48Zm0,97.26a35.12,35.12,0,1,1,35.12-35.12A35.16,35.16,0,0,1,340.24,463.74Z"/>
            <path class="cls-1" d="M287.71,419.4H14.39a13.74,13.74,0,1,0,0,27.47H287.71a13.74,13.74,0,0,0,0-27.47Z"/>
            <path class="cls-1"
                  d="M522.18,419H395.5a13.79,13.79,0,0,0-13.84,12,13.61,13.61,0,0,0,13.66,15H522a13.79,13.79,0,0,0,13.83-12A13.58,13.58,0,0,0,522.18,419Z"/>
        </g>
    </g>
</svg>
