<?xml version="1.0"?>
<svg xmlns="http://www.w3.org/2000/svg" xmlns:xlink="http://www.w3.org/1999/xlink" version="1.1" id="Capa_1" x="0px" y="0px" viewBox="0 0 512 512" style="enable-background:new 0 0 512 512;" xml:space="preserve" width="512px" height="512px"><g><g>
	<g>
		<path d="M500.467,451.229H9.749c-4.195,0-7.597,3.4-7.597,7.597c0,4.196,3.401,7.597,7.597,7.597h490.719    c4.195,0,7.596-3.4,7.596-7.597C508.064,454.629,504.663,451.229,500.467,451.229z" data-original="#000000" class="active-path" data-old_color="#000000" fill="#222222"/>
	</g>
</g><g>
	<g>
		<path d="M402.578,234.745c-5.914-5.721-13.743-8.873-22.045-8.873c-8.431,0-16.369,3.198-22.418,8.977    c-0.1,0.09-0.205,0.175-0.301,0.271c-0.034,0.033-0.063,0.071-0.095,0.105c-0.05,0.049-0.102,0.095-0.152,0.145L228.168,363.214    c-1.281,1.281-2.429,2.69-3.439,4.19c-0.428,0.52-0.771,1.085-1.04,1.676c-1.051,1.824-1.908,3.761-2.527,5.776L207.4,419.66    c-0.826,2.689-0.099,5.616,1.891,7.605c1.446,1.445,3.386,2.223,5.371,2.223c0.747,0,1.499-0.109,2.235-0.336l44.783-13.79    c4.371-1.345,8.391-3.766,11.592-6.968l68.622-67.799c2.985-2.948,3.014-7.758,0.065-10.743    c-2.948-2.983-7.759-3.015-10.743-0.064l-66.559,65.76l-23.656-23.656l106.281-105.004l23.654,23.655l-18.105,17.888    c-2.985,2.948-3.014,7.758-0.066,10.743c2.948,2.982,7.758,3.014,10.743,0.064l22.469-22.199c0.428-0.282,0.836-0.609,1.212-0.986    c0.351-0.352,0.657-0.73,0.926-1.127l14.795-14.618c0.015-0.014,0.031-0.027,0.047-0.042c0.026-0.026,0.048-0.055,0.073-0.081    c5.982-6.021,9.277-14.004,9.277-22.497C412.308,248.965,408.852,240.817,402.578,234.745z M250.522,402.9l-24.385,7.509    l7.494-24.399L250.522,402.9z M381.745,279.864l-23.654-23.654l5.064-5.004l23.654,23.655L381.745,279.864z M396.293,262.859    l-20.985-20.985c1.67-0.527,3.426-0.807,5.224-0.807c4.338,0,8.416,1.633,11.48,4.599c3.29,3.185,5.102,7.454,5.102,12.024    C397.115,259.474,396.826,261.211,396.293,262.859z" data-original="#000000" class="active-path" data-old_color="#000000" fill="#222222"/>
	</g>
</g><g>
	<g>
		<path d="M100.146,141.302H46.971c-7.121,0-12.914,5.794-12.914,12.914v27.346c0,7.121,5.793,12.914,12.914,12.914h53.174    c7.121,0,12.914-5.794,12.914-12.914v-27.346C113.06,147.096,107.268,141.302,100.146,141.302z M97.866,179.284H49.25v-22.788    h48.615V179.284z" data-original="#000000" class="active-path" data-old_color="#000000" fill="#222222"/>
	</g>
</g><g>
	<g>
		<path d="M464.765,141.302h-53.173c-7.121,0-12.914,5.794-12.914,12.914v27.346c0,7.121,5.794,12.914,12.914,12.914h53.173    c7.121,0,12.914-5.794,12.914-12.914v-27.346C477.679,147.096,471.886,141.302,464.765,141.302z M462.486,179.284h-48.615v-22.788    h48.615V179.284z" data-original="#000000" class="active-path" data-old_color="#000000" fill="#222222"/>
	</g>
</g><g>
	<g>
		<path d="M477.679,107.879h-73.492c-4.195,0-7.597,3.4-7.597,7.597c0,4.196,3.401,7.597,7.597,7.597h73.492    c10.052,0,18.231,8.178,18.231,18.23v63.809H16.091v-63.809c0-10.052,8.178-18.23,18.231-18.23h339.479    c4.195,0,7.597-3.4,7.597-7.597c0-4.196-3.401-7.597-7.597-7.597H264.333V95.211c0-15.08,12.268-27.348,27.348-27.348h120.533    c23.457,0,42.541-19.084,42.541-42.541V7.597c0-4.196-3.401-7.597-7.597-7.597c-4.195,0-7.597,3.4-7.597,7.597v17.726    c0,15.08-12.268,27.348-27.348,27.348H291.68c-23.457,0-42.541,19.084-42.541,42.541v12.668H34.322    c-18.43,0-33.424,14.994-33.424,33.423v205.384c0,4.196,3.401,7.597,7.597,7.597c4.195,0,7.597-3.4,7.597-7.597V220.304h479.819    v258.271c0,10.053-8.178,18.231-18.231,18.231H34.322c-10.053,0-18.231-8.178-18.231-18.231V377.072    c0-4.196-3.401-7.597-7.597-7.597c-4.195,0-7.597,3.4-7.597,7.597v101.504C0.897,497.005,15.891,512,34.322,512h443.357    c18.429,0,33.424-14.995,33.424-33.424V141.302C511.103,122.873,496.109,107.879,477.679,107.879z" data-original="#000000" class="active-path" data-old_color="#000000" fill="#222222"/>
	</g>
</g></g> </svg>
