<?xml version="1.0"?>
<svg xmlns="http://www.w3.org/2000/svg" xmlns:xlink="http://www.w3.org/1999/xlink" version="1.1" id="Capa_1" x="0px" y="0px" viewBox="0 0 512 512" style="enable-background:new 0 0 512 512;" xml:space="preserve" width="512px" height="512px"><g><g>
	<g>
		<path d="M487.128,38.771H205.84c-4.358,0-7.888,3.531-7.888,7.888c0,4.358,3.531,7.888,7.888,7.888h281.287    c5.016,0,9.095,4.08,9.095,9.095v293.953c0,5.016-4.08,9.096-9.095,9.096H24.871c-5.016,0-9.095-4.081-9.095-9.096V63.643    c0-5.016,4.08-9.095,9.095-9.095h147.27c4.357,0,7.888-3.531,7.888-7.888c0-4.358-3.531-7.888-7.888-7.888H24.871    C11.157,38.771,0,49.929,0,63.643v293.953c0,13.715,11.157,24.872,24.871,24.872h462.256c13.714,0,24.871-11.157,24.871-24.872    V63.643C512,49.929,500.843,38.771,487.128,38.771z" data-original="#000000" class="active-path" data-old_color="#000000" fill="#222222"/>
	</g>
</g><g>
	<g>
		<path d="M452.095,83.303H107.703c-12.51,0-22.687,10.178-22.687,22.687v209.258c0,12.51,10.178,22.687,22.687,22.687h189.872    c4.357,0,7.888-3.531,7.888-7.888c0-4.357-3.531-7.888-7.888-7.888H107.703c-3.811,0-6.91-3.1-6.91-6.91V105.99    c0-3.811,3.1-6.91,6.91-6.91h344.392c2.738,0,4.964,2.227,4.964,4.964v213.151c0,2.738-2.228,4.964-4.964,4.964H343.756    c-4.357,0-7.888,3.531-7.888,7.888c0,4.358,3.531,7.888,7.888,7.888h108.339c11.436,0,20.741-9.305,20.741-20.741V104.044    C472.836,92.608,463.531,83.303,452.095,83.303z" data-original="#000000" class="active-path" data-old_color="#000000" fill="#222222"/>
	</g>
</g><g>
	<g>
		<path d="M50.655,187.471c-12.764,0-23.149,10.384-23.149,23.149c0,12.764,10.384,23.149,23.149,23.149    s23.149-10.384,23.149-23.149C73.803,197.855,63.419,187.471,50.655,187.471z M50.655,217.991c-4.064,0-7.372-3.308-7.372-7.372    c0-4.064,3.308-7.372,7.372-7.372s7.372,3.308,7.372,7.372C58.027,214.684,54.719,217.991,50.655,217.991z" data-original="#000000" class="active-path" data-old_color="#000000" fill="#222222"/>
	</g>
</g><g>
	<g>
		<path d="M66.508,96.064H37.214c-4.357,0-7.888,3.531-7.888,7.888c0,4.357,3.531,7.888,7.888,7.888h29.295    c4.357,0,7.888-3.531,7.888-7.888C74.397,99.595,70.866,96.064,66.508,96.064z" data-original="#000000" class="active-path" data-old_color="#000000" fill="#222222"/>
	</g>
</g><g>
	<g>
		<path d="M66.508,128.817H37.214c-4.357,0-7.888,3.531-7.888,7.888c0,4.358,3.531,7.888,7.888,7.888h29.295    c4.357,0,7.888-3.531,7.888-7.888C74.397,132.348,70.866,128.817,66.508,128.817z" data-original="#000000" class="active-path" data-old_color="#000000" fill="#222222"/>
	</g>
</g><g>
	<g>
		<path d="M66.508,158.418H37.214c-4.357,0-7.888,3.531-7.888,7.888c0,4.357,3.531,7.888,7.888,7.888h29.295    c4.357,0,7.888-3.531,7.888-7.888C74.397,161.948,70.866,158.418,66.508,158.418z" data-original="#000000" class="active-path" data-old_color="#000000" fill="#222222"/>
	</g>
</g><g>
	<g>
		<path d="M66.508,251.949H37.214c-4.357,0-7.888,3.531-7.888,7.888c0,4.358,3.531,7.888,7.888,7.888h29.295    c4.357,0,7.888-3.531,7.888-7.888C74.397,255.48,70.866,251.949,66.508,251.949z" data-original="#000000" class="active-path" data-old_color="#000000" fill="#222222"/>
	</g>
</g><g>
	<g>
		<path d="M66.508,284.702H37.214c-4.357,0-7.888,3.531-7.888,7.888s3.531,7.888,7.888,7.888h29.295    c4.357,0,7.888-3.531,7.888-7.888S70.866,284.702,66.508,284.702z" data-original="#000000" class="active-path" data-old_color="#000000" fill="#222222"/>
	</g>
</g><g>
	<g>
		<path d="M66.508,314.303H37.214c-4.357,0-7.888,3.531-7.888,7.888c0,4.357,3.531,7.888,7.888,7.888h29.295    c4.357,0,7.888-3.531,7.888-7.888C74.397,317.833,70.866,314.303,66.508,314.303z" data-original="#000000" class="active-path" data-old_color="#000000" fill="#222222"/>
	</g>
</g><g>
	<g>
		<path d="M478.193,405.514H236.12H84.632c-1.444-0.222-2.965-0.052-4.397,0.588l-50.707,22.591c-1.472,0.655-2.756,1.6-3.81,2.742    H11.044c-4.358,0-7.888,3.531-7.888,7.888c0,4.358,3.531,7.888,7.888,7.888h14.674c1.053,1.142,2.337,2.087,3.81,2.742    l50.707,22.591c1.042,0.465,2.132,0.685,3.206,0.685c0.409,0,0.814-0.038,1.215-0.101H236.12h242.073    c18.642,0,33.807-15.167,33.807-33.808C512,420.678,496.834,405.514,478.193,405.514z M75.652,453.231l-31.22-13.909l31.22-13.909    V453.231z M228.232,457.352H91.429V421.29h136.803V457.352z M478.193,457.352H244.008V421.29h234.185    c9.941,0,18.031,8.088,18.031,18.031C496.223,449.262,488.134,457.352,478.193,457.352z" data-original="#000000" class="active-path" data-old_color="#000000" fill="#222222"/>
	</g>
</g></g> </svg>
