<?xml version="1.0" encoding="UTF-8"?>
<!DOCTYPE svg PUBLIC "-//W3C//DTD SVG 1.1//EN" "http://www.w3.org/Graphics/SVG/1.1/DTD/svg11.dtd">
<!-- Creator: CorelDRAW 2018 (64-Bit) -->
<svg xmlns="http://www.w3.org/2000/svg" xml:space="preserve" version="1.1" style="shape-rendering:geometricPrecision; text-rendering:geometricPrecision; image-rendering:optimizeQuality; fill-rule:evenodd; clip-rule:evenodd"
viewBox="0 0 200617.6 37675.46"
 xmlns:xlink="http://www.w3.org/1999/xlink">
 <defs>
  <style type="text/css">
   <![CDATA[
    .fil0 {fill:#999999}
    .fil1 {fill:#999999;fill-rule:nonzero}
   ]]>
  </style>
 </defs>
 <g id="Слой_x0020_1">
  <metadata id="CorelCorpID_0Corel-Layer"/>
  <g id="_2739923362928">
   <path class="fil0" d="M441.82 303.66l8096.25 0 13229.17 22330.83 -4048.13 6799.79 -17277.29 -29130.62zm9445.63 0l34581.04 0 -4127.5 6958.54 0 0 -26326.04 0 -4127.5 -6958.54 0 0zm29765.62 8122.71l-17224.38 28945.42 -4021.67 -6799.79 13149.79 -22145.62 8096.25 0 0 0 0.01 -0.01z"/>
   <path class="fil1" d="M50950.78 26021.43l2116.67 0 0 -14869.58 -2116.67 0 0 14869.58zm19129.37 -14869.59l-2143.13 0 0 11271.25 -10609.79 -11271.25 -2143.13 0 0 14869.58 2143.13 0 0 -11430 10609.79 11430 2143.13 0 0 -14869.58zm15927.92 2116.67l0 -2116.67 -14869.58 0 0 2116.67 6376.46 0 0 12752.92 2116.67 0 0 -12752.92 6376.46 0 0 0 -0.01 0zm3201.46 0l12752.92 0 0 -2116.67 -14896.04 0 0 14869.58 14896.04 0 0 -2116.67 -12752.92 0 0 -4259.79 10636.25 0 0 -2116.67 -10636.25 0 0 -4259.79 0 0.01zm20611.04 6376.46l6376.46 0 0 2143.13c0,1164.17 -952.5,2116.67 -2116.67,2116.67l-6376.46 0c-1164.17,0 -2143.13,-952.5 -2143.13,-2116.67l0 -6376.46c0,-1164.17 978.96,-2143.13 2143.13,-2143.13l6376.46 0c1164.17,0 2116.67,978.96 2116.67,2143.13l2143.13 0c-79.38,-2354.79 -1984.38,-4259.79 -4259.79,-4259.79l-6376.46 0c-2381.25,0 -4259.79,2010.83 -4259.79,4259.79l0 6376.46c0,2407.71 1984.38,4233.33 4259.79,4233.33l6376.46 0c2381.25,0 4259.79,-1984.38 4259.79,-4233.33l0 -4259.79 -8519.58 0 0 2116.67 0 0 -0.01 -0.01zm23177.5 -2116.67c0,1164.17 -952.5,2116.67 -2116.67,2116.67l-8519.58 0 0 -6376.46 8519.58 0c1164.17,0 2116.67,978.96 2116.67,2143.13l0 2116.67 0 0 0 -0.01zm2116.67 8493.13l0 -1508.13 -2936.88 -2936.88c1746.25,-608.54 2936.88,-2248.96 2936.88,-4048.13l0 -2116.67c0,-2354.79 -2010.83,-4259.79 -4233.33,-4259.79l-10636.25 0 0 14869.58 2116.67 0 0 -4233.33 7011.46 0 4233.33 4233.33 1508.13 0 0 0 -0.01 0.02zm12541.25 -12752.92c1190.63,0 2143.13,978.96 2143.13,2143.13l0 4233.33 -10636.25 0 0 -4233.33c0,-1164.17 952.5,-2143.13 2116.67,-2143.13l6376.46 0 0 0 -0.01 0zm4259.79 2143.12c-52.92,-2354.79 -1984.38,-4259.79 -4259.79,-4259.79l-6376.46 0c-2381.25,0 -4233.33,2010.83 -4233.33,4259.79l0 10609.79 2116.67 0 0 -4233.33 10636.25 0 0 4233.33 2116.67 0 0 -10609.79 0 0 -0.01 0zm17012.71 -4259.79l-2143.13 0 0 11271.25 -10609.79 -11271.25 -2143.13 0 0 14869.58 2143.13 0 0 -11430 10609.79 11430 2143.13 0 0 -14869.58zm15927.91 2116.67l0 -2116.67 -14869.58 0 0 2116.67 6376.46 0 0 12752.92 2116.67 0 0 -12752.92 6376.46 0 -0.01 0zm11059.59 0c1164.17,0 2143.13,978.96 2143.13,2143.13l0 4233.33 -10636.25 0 0 -4233.33c0,-1164.17 952.5,-2143.13 2116.67,-2143.13l6376.46 0 0 0 -0.01 0zm4259.79 2143.12c-79.38,-2354.79 -1984.38,-4259.79 -4259.79,-4259.79l-6376.46 0c-2381.25,0 -4259.79,2010.83 -4259.79,4259.79l0 10609.79 2143.13 0 0 -4233.33 10636.25 0 0 4233.33 2116.67 0 0 -10609.79 0 0 -0.01 0z"/>
  </g>
 </g>
</svg>
