<?xml version="1.0"?>
<svg xmlns="http://www.w3.org/2000/svg" xmlns:xlink="http://www.w3.org/1999/xlink" version="1.1" id="Capa_1" x="0px" y="0px" viewBox="0 0 512 512" style="enable-background:new 0 0 512 512;" xml:space="preserve" width="512px" height="512px"><g><g>
	<g>
		<path d="M176,32H16C7.168,32,0,39.168,0,48v160c0,8.832,7.168,16,16,16h160c8.832,0,16-7.168,16-16V48    C192,39.168,184.832,32,176,32z M160,192H32V64h128V192z" data-original="#000000" class="active-path" data-old_color="#000000" fill="#222222"/>
	</g>
</g><g>
	<g>
		<path d="M176,288H16c-8.832,0-16,7.168-16,16v160c0,8.832,7.168,16,16,16h160c8.832,0,16-7.168,16-16V304    C192,295.168,184.832,288,176,288z M160,448H32V320h128V448z" data-original="#000000" class="active-path" data-old_color="#000000" fill="#222222"/>
	</g>
</g><g>
	<g>
		<rect x="256" y="80" width="128" height="32" data-original="#000000" class="active-path" data-old_color="#000000" fill="#222222"/>
	</g>
</g><g>
	<g>
		<rect x="256" y="144" width="256" height="32" data-original="#000000" class="active-path" data-old_color="#000000" fill="#222222"/>
	</g>
</g><g>
	<g>
		<rect x="256" y="336" width="128" height="32" data-original="#000000" class="active-path" data-old_color="#000000" fill="#222222"/>
	</g>
</g><g>
	<g>
		<rect x="256" y="400" width="256" height="32" data-original="#000000" class="active-path" data-old_color="#000000" fill="#222222"/>
	</g>
</g></g> </svg>
