<?xml version="1.0" encoding="UTF-8"?>
<!DOCTYPE svg PUBLIC "-//W3C//DTD SVG 1.1//EN" "http://www.w3.org/Graphics/SVG/1.1/DTD/svg11.dtd">
<!-- Creator: CorelDRAW 2018 (64-Bit) -->
<svg xmlns="http://www.w3.org/2000/svg" xml:space="preserve" version="1.1"
viewBox="0 0 22150 19400"
 xmlns:xlink="http://www.w3.org/1999/xlink">
 <g id="Слой_x0020_1">
  <metadata id="CorelCorpID_0Corel-Layer"/>
  <g id="_2440466823920">
   <g>
    <path class="fil0" d="M15996.88 430.47c-1139.54,0 -2184.29,361.1 -3105.17,1073.3 -882.86,682.79 -1470.66,1552.44 -1816.71,2184.82 -346.05,-632.42 -933.84,-1502.03 -1816.71,-2184.82 -920.88,-712.2 -1965.63,-1073.3 -3105.17,-1073.3 -3180.02,0 -5578.12,2601.09 -5578.12,6050.38 0,3726.43 2991.8,6276.01 7520.99,10135.7 769.13,655.47 1640.91,1398.43 2547.03,2190.81 119.44,104.59 272.84,162.17 431.98,162.17 159.14,0 312.54,-57.59 431.98,-162.13 906.2,-792.5 1777.95,-1535.42 2547.52,-2191.26 4528.7,-3859.29 7520.5,-6408.86 7520.5,-10135.29 0,-3449.29 -2398.1,-6050.38 -5578.12,-6050.38z"/>
   </g>
  </g>
 </g>
</svg>
