<?xml version="1.0" standalone="no"?>
<!DOCTYPE svg PUBLIC "-//W3C//DTD SVG 20010904//EN"
 "http://www.w3.org/TR/2001/REC-SVG-20010904/DTD/svg10.dtd">
<svg version="1.0" xmlns="http://www.w3.org/2000/svg"
 width="700.000000pt" height="700.000000pt" viewBox="0 0 700.000000 700.000000"
 preserveAspectRatio="xMidYMid meet">
<metadata>
Created by potrace 1.14, written by Peter Selinger 2001-2017
</metadata>
<g transform="translate(0.000000,700.000000) scale(0.100000,-0.100000)"
fill="#000000" stroke="none">
<path d="M2607 6993 c-2 -5 -3 -115 -3 -247 1 -154 -2 -240 -9 -242 -70 -23
-280 -101 -315 -116 -123 -55 -160 -72 -214 -100 l-58 -30 -175 174 -175 175
-629 -629 c-346 -346 -629 -632 -629 -636 0 -4 77 -84 170 -177 l171 -171 -59
-124 c-88 -186 -138 -311 -172 -427 -7 -23 -20 -43 -29 -45 -9 -2 -121 -4
-249 -3 l-232 0 2 -895 3 -895 244 0 244 0 10 -30 c33 -105 119 -319 173 -434
l65 -135 -174 -176 -174 -175 633 -631 632 -631 175 175 174 174 79 -40 c114
-57 260 -119 399 -168 l120 -42 0 -243 0 -244 895 0 895 0 2 230 c0 127 2 238
2 247 1 10 13 19 34 23 59 13 321 117 441 176 l119 58 175 -174 176 -175 632
632 c490 490 630 636 622 646 -6 7 -85 86 -175 176 l-163 164 34 66 c52 99
135 298 176 420 l37 109 247 0 246 -1 0 898 0 897 -246 0 -247 0 -37 109 c-46
135 -97 259 -161 387 l-48 99 157 158 c86 87 165 166 174 176 16 18 -9 45
-616 652 l-633 632 -175 -175 -175 -175 -119 59 c-132 65 -266 120 -391 160
-74 23 -83 29 -84 51 0 14 -1 125 -1 248 l-1 222 -893 0 c-491 0 -895 -3 -897
-7z"/>
</g>
</svg>
