<?xml version="1.0" standalone="no"?>
<!DOCTYPE svg PUBLIC "-//W3C//DTD SVG 20010904//EN"
 "http://www.w3.org/TR/2001/REC-SVG-20010904/DTD/svg10.dtd">
<svg version="1.0" xmlns="http://www.w3.org/2000/svg"
 width="700.000000pt" height="700.000000pt" viewBox="0 0 700.000000 700.000000"
 preserveAspectRatio="xMidYMid meet">
<metadata>
Created by potrace 1.11, written by Peter Selinger 2001-2013
</metadata>
<g transform="translate(0.000000,700.000000) scale(0.100000,-0.100000)"
fill="#000000" stroke="none">
<path d="M785 6620 c-54 -8 -157 -35 -190 -50 -11 -5 -42 -18 -68 -29 -205
-87 -401 -306 -477 -532 -51 -151 -50 -108 -50 -1849 1 -1801 -3 -1700 67
-1874 85 -214 237 -378 448 -484 63 -31 175 -68 235 -76 46 -7 95 18 110 55
l12 29 139 0 c121 0 139 -2 139 -16 0 -9 15 -31 34 -50 l34 -34 631 0 630 0
-4 -37 c-2 -21 -6 -74 -10 -118 -3 -44 -8 -91 -10 -105 -2 -14 -7 -63 -10
-110 -4 -47 -9 -93 -11 -103 -2 -10 -4 -40 -5 -68 -2 -45 -5 -49 -28 -50 -138
-5 -227 -39 -313 -118 -32 -29 -71 -76 -87 -104 -32 -57 -68 -171 -74 -232 -4
-42 16 -137 33 -158 5 -7 21 -26 34 -42 13 -17 48 -44 78 -60 l53 -30 1375 0
1375 0 41 22 c101 54 157 140 157 241 0 69 -34 188 -74 259 -35 62 -125 146
-183 172 -83 36 -103 42 -165 45 -34 2 -66 8 -71 12 -4 5 -11 47 -14 94 -4 47
-8 96 -10 110 -3 14 -7 63 -11 109 -8 110 -14 177 -21 229 l-5 42 813 1 c447
0 827 2 844 4 49 5 106 15 114 20 3 2 22 7 40 10 107 19 284 121 391 226 136
133 209 266 266 484 4 17 8 779 10 1695 1 1568 1 1670 -16 1750 -57 266 -226
490 -471 622 -139 75 -281 106 -476 104 -132 -1 -133 -1 -163 -30 -17 -17 -31
-38 -31 -48 0 -22 12 -20 -135 -22 -116 -2 -162 5 -150 24 3 5 -8 24 -24 42
l-29 33 -2334 1 c-1283 1 -2356 -2 -2383 -6z"/>
</g>
</svg>
